<svg xmlns="http://www.w3.org/2000/svg" viewBox="0 10.550000190734863 681.2000122070312 47.54999923706055" data-asc="0.968" width="681.2000122070312" height="47.54999923706055"><defs/><g><g fill="#1d3559"><g transform="translate(0, 0)"><path d="M18.50 48.80Q14.50 48.80 11.13 47.48Q7.75 46.15 5.28 43.73Q2.80 41.30 1.40 38.05Q0 34.80 0 30.90Q0 27.00 1.40 23.75Q2.80 20.50 5.30 18.07Q7.80 15.65 11.18 14.32Q14.55 13 18.55 13Q22.60 13 26.02 14.38Q29.45 15.75 31.85 18.45L28.60 21.60Q26.60 19.50 24.10 18.47Q21.60 17.45 18.75 17.45Q15.80 17.45 13.28 18.45Q10.75 19.45 8.90 21.25Q7.05 23.05 6.03 25.52Q5 28.00 5 30.90Q5 33.80 6.03 36.27Q7.05 38.75 8.90 40.55Q10.75 42.35 13.28 43.35Q15.80 44.35 18.75 44.35Q21.60 44.35 24.10 43.32Q26.60 42.30 28.60 40.15L31.85 43.30Q29.45 46 26.02 47.40Q22.60 48.80 18.50 48.80ZM38.30 48.40L38.30 11.30L43.10 11.30L43.10 48.40L38.30 48.40ZM52.25 48.40L52.25 21.90L57.05 21.90L57.05 48.40L52.25 48.40M54.65 16.80Q53.25 16.80 52.33 15.90Q51.40 15 51.40 13.70Q51.40 12.35 52.33 11.45Q53.25 10.55 54.65 10.55Q56.05 10.55 56.98 11.42Q57.90 12.30 57.90 13.60Q57.90 14.95 57 15.88Q56.10 16.80 54.65 16.80ZM78 48.70Q73.75 48.70 70.53 46.95Q67.30 45.20 65.53 42.15Q63.75 39.10 63.75 35.15Q63.75 31.20 65.48 28.15Q67.20 25.10 70.23 23.37Q73.25 21.65 77.05 21.65Q80.90 21.65 83.85 23.35Q86.80 25.05 88.48 28.12Q90.15 31.20 90.15 35.30Q90.15 35.60 90.13 36Q90.10 36.40 90.05 36.75L67.50 36.75L67.50 33.30L87.55 33.30L85.60 34.50Q85.65 31.95 84.55 29.95Q83.45 27.95 81.53 26.82Q79.60 25.70 77.05 25.70Q74.55 25.70 72.60 26.82Q70.65 27.95 69.55 29.97Q68.45 32.00 68.45 34.60L68.45 35.40Q68.45 38.05 69.68 40.13Q70.90 42.20 73.10 43.35Q75.30 44.50 78.15 44.50Q80.50 44.50 82.43 43.70Q84.35 42.90 85.80 41.30L88.45 44.40Q86.65 46.50 83.98 47.60Q81.30 48.70 78 48.70ZM110.95 21.65Q114.20 21.65 116.67 22.90Q119.15 24.15 120.55 26.70Q121.95 29.25 121.95 33.15L121.95 48.40L117.15 48.40L117.15 33.70Q117.15 29.85 115.28 27.90Q113.40 25.95 110 25.95Q107.45 25.95 105.55 26.95Q103.65 27.95 102.63 29.90Q101.60 31.85 101.60 34.75L101.60 48.40L96.80 48.40L96.80 21.90L101.40 21.90L101.40 29.05L100.65 27.15Q101.95 24.55 104.65 23.10Q107.35 21.65 110.95 21.65ZM139.95 48.70Q135.95 48.70 133.75 46.55Q131.55 44.40 131.55 40.40L131.55 16.10L136.35 16.10L136.35 40.20Q136.35 42.35 137.43 43.50Q138.50 44.65 140.50 44.65Q142.75 44.65 144.25 43.40L145.75 46.85Q144.65 47.80 143.13 48.25Q141.60 48.70 139.95 48.70M127.05 25.85L127.05 21.90L143.95 21.90L143.95 25.85L127.05 25.85ZM181.35 48.80Q177.35 48.80 173.97 47.48Q170.60 46.15 168.13 43.73Q165.65 41.30 164.25 38.05Q162.85 34.80 162.85 30.90Q162.85 27.00 164.25 23.75Q165.65 20.50 168.15 18.07Q170.65 15.65 174.02 14.32Q177.40 13 181.40 13Q185.45 13 188.88 14.38Q192.30 15.75 194.70 18.45L191.45 21.60Q189.45 19.50 186.95 18.47Q184.45 17.45 181.60 17.45Q178.65 17.45 176.13 18.45Q173.60 19.45 171.75 21.25Q169.90 23.05 168.88 25.52Q167.85 28.00 167.85 30.90Q167.85 33.80 168.88 36.27Q169.90 38.75 171.75 40.55Q173.60 42.35 176.13 43.35Q178.65 44.35 181.60 44.35Q184.45 44.35 186.95 43.32Q189.45 42.30 191.45 40.15L194.70 43.30Q192.30 46 188.88 47.40Q185.45 48.80 181.35 48.80ZM201.15 48.40L201.15 11.30L205.95 11.30L205.95 48.40L201.15 48.40ZM231.55 48.40L231.55 42.80L231.30 41.75L231.30 32.20Q231.30 29.15 229.52 27.47Q227.75 25.80 224.20 25.80Q221.85 25.80 219.60 26.57Q217.35 27.35 215.80 28.65L213.80 25.05Q215.85 23.40 218.72 22.52Q221.60 21.65 224.75 21.65Q230.20 21.65 233.15 24.30Q236.10 26.95 236.10 32.40L236.10 48.40L231.55 48.40M222.85 48.70Q219.90 48.70 217.67 47.70Q215.45 46.70 214.25 44.92Q213.05 43.15 213.05 40.90Q213.05 38.75 214.07 37Q215.10 35.25 217.42 34.20Q219.75 33.15 223.70 33.15L232.10 33.15L232.10 36.60L223.90 36.60Q220.30 36.60 219.05 37.80Q217.80 39 217.80 40.70Q217.80 42.65 219.35 43.82Q220.90 45 223.65 45Q226.35 45 228.37 43.80Q230.40 42.60 231.30 40.30L232.25 43.60Q231.30 45.95 228.90 47.32Q226.50 48.70 222.85 48.70ZM252.60 48.70Q249.30 48.70 246.32 47.80Q243.35 46.90 241.65 45.60L243.65 41.80Q245.35 42.95 247.85 43.75Q250.35 44.55 252.95 44.55Q256.30 44.55 257.77 43.60Q259.25 42.65 259.25 40.95Q259.25 39.70 258.35 39Q257.45 38.30 255.97 37.95Q254.50 37.60 252.70 37.32Q250.90 37.05 249.10 36.63Q247.30 36.20 245.80 35.42Q244.30 34.65 243.40 33.27Q242.50 31.90 242.50 29.60Q242.50 27.20 243.85 25.40Q245.20 23.60 247.67 22.62Q250.15 21.65 253.55 21.65Q256.15 21.65 258.82 22.27Q261.50 22.90 263.20 24.05L261.15 27.85Q259.35 26.65 257.40 26.20Q255.45 25.75 253.50 25.75Q250.35 25.75 248.80 26.77Q247.25 27.80 247.25 29.40Q247.25 30.75 248.17 31.47Q249.10 32.20 250.57 32.60Q252.05 33 253.85 33.27Q255.65 33.55 257.45 33.97Q259.25 34.40 260.72 35.15Q262.20 35.90 263.13 37.25Q264.05 38.60 264.05 40.85Q264.05 43.25 262.65 45Q261.25 46.75 258.70 47.73Q256.15 48.70 252.60 48.70ZM277.65 48.70Q274.35 48.70 271.38 47.80Q268.40 46.90 266.70 45.60L268.70 41.80Q270.40 42.95 272.90 43.75Q275.40 44.55 278 44.55Q281.35 44.55 282.82 43.60Q284.30 42.65 284.30 40.95Q284.30 39.70 283.40 39Q282.50 38.30 281.02 37.95Q279.55 37.60 277.75 37.32Q275.95 37.05 274.15 36.63Q272.35 36.20 270.85 35.42Q269.35 34.65 268.45 33.27Q267.55 31.90 267.55 29.60Q267.55 27.20 268.90 25.40Q270.25 23.60 272.73 22.62Q275.20 21.65 278.60 21.65Q281.20 21.65 283.88 22.27Q286.55 22.90 288.25 24.05L286.20 27.85Q284.40 26.65 282.45 26.20Q280.50 25.75 278.55 25.75Q275.40 25.75 273.85 26.77Q272.30 27.80 272.30 29.40Q272.30 30.75 273.23 31.47Q274.15 32.20 275.63 32.60Q277.10 33 278.90 33.27Q280.70 33.55 282.50 33.97Q284.30 34.40 285.77 35.15Q287.25 35.90 288.18 37.25Q289.10 38.60 289.10 40.85Q289.10 43.25 287.70 45Q286.30 46.75 283.75 47.73Q281.20 48.70 277.65 48.70ZM295.10 48.40L295.10 21.90L299.90 21.90L299.90 48.40L295.10 48.40M297.50 16.80Q296.10 16.80 295.18 15.90Q294.25 15 294.25 13.70Q294.25 12.35 295.18 11.45Q296.10 10.55 297.50 10.55Q298.90 10.55 299.82 11.42Q300.75 12.30 300.75 13.60Q300.75 14.95 299.85 15.88Q298.95 16.80 297.50 16.80ZM309.75 48.40L309.75 19.55Q309.75 15.65 312.02 13.32Q314.30 11 318.50 11Q320.05 11 321.48 11.38Q322.90 11.75 323.90 12.55L322.45 16.20Q321.70 15.60 320.75 15.27Q319.80 14.95 318.75 14.95Q316.65 14.95 315.55 16.13Q314.45 17.30 314.45 19.60L314.45 23.15L314.55 25.35L314.55 48.40L309.75 48.40M305.25 25.85L305.25 21.90L322.15 21.90L322.15 25.85L305.25 25.85ZM326.70 48.40L326.70 21.90L331.50 21.90L331.50 48.40L326.70 48.40M329.10 16.80Q327.70 16.80 326.77 15.90Q325.85 15 325.85 13.70Q325.85 12.35 326.77 11.45Q327.70 10.55 329.10 10.55Q330.50 10.55 331.42 11.42Q332.35 12.30 332.35 13.60Q332.35 14.95 331.45 15.88Q330.55 16.80 329.10 16.80ZM352.20 48.70Q348.15 48.70 344.97 46.95Q341.80 45.20 340.00 42.15Q338.20 39.10 338.20 35.15Q338.20 31.20 340.00 28.15Q341.80 25.10 344.97 23.37Q348.15 21.65 352.20 21.65Q355.80 21.65 358.62 23.07Q361.45 24.50 363.00 27.30L359.35 29.65Q358.05 27.70 356.17 26.77Q354.30 25.85 352.15 25.85Q349.55 25.85 347.50 27.00Q345.45 28.15 344.25 30.22Q343.05 32.30 343.05 35.15Q343.05 38 344.25 40.10Q345.45 42.20 347.50 43.35Q349.55 44.50 352.15 44.50Q354.30 44.50 356.17 43.57Q358.05 42.65 359.35 40.70L363.00 43Q361.45 45.75 358.62 47.23Q355.80 48.70 352.20 48.70ZM385.65 48.40L385.65 42.80L385.40 41.75L385.40 32.20Q385.40 29.15 383.63 27.47Q381.85 25.80 378.30 25.80Q375.95 25.80 373.70 26.57Q371.45 27.35 369.90 28.65L367.90 25.05Q369.95 23.40 372.82 22.52Q375.70 21.65 378.85 21.65Q384.30 21.65 387.25 24.30Q390.20 26.95 390.20 32.40L390.20 48.40L385.65 48.40M376.95 48.70Q374 48.70 371.77 47.70Q369.55 46.70 368.35 44.92Q367.15 43.15 367.15 40.90Q367.15 38.75 368.17 37Q369.20 35.25 371.52 34.20Q373.85 33.15 377.80 33.15L386.20 33.15L386.20 36.60L378 36.60Q374.40 36.60 373.15 37.80Q371.90 39 371.90 40.70Q371.90 42.65 373.45 43.82Q375 45 377.75 45Q380.45 45 382.47 43.80Q384.50 42.60 385.40 40.30L386.35 43.60Q385.40 45.95 383 47.32Q380.60 48.70 376.95 48.70ZM408.20 48.70Q404.20 48.70 402.00 46.55Q399.80 44.40 399.80 40.40L399.80 16.10L404.60 16.10L404.60 40.20Q404.60 42.35 405.67 43.50Q406.75 44.65 408.75 44.65Q411.00 44.65 412.50 43.40L414.00 46.85Q412.90 47.80 411.37 48.25Q409.85 48.70 408.20 48.70M395.30 25.85L395.30 21.90L412.20 21.90L412.20 25.85L395.30 25.85ZM419.80 48.40L419.80 21.90L424.60 21.90L424.60 48.40L419.80 48.40M422.20 16.80Q420.80 16.80 419.87 15.90Q418.95 15 418.95 13.70Q418.95 12.35 419.87 11.45Q420.80 10.55 422.20 10.55Q423.60 10.55 424.52 11.42Q425.45 12.30 425.45 13.60Q425.45 14.95 424.55 15.88Q423.65 16.80 422.20 16.80ZM445.10 48.70Q441.10 48.70 438.00 46.95Q434.90 45.20 433.10 42.13Q431.30 39.05 431.30 35.15Q431.30 31.20 433.10 28.15Q434.90 25.10 438.00 23.37Q441.10 21.65 445.10 21.65Q449.05 21.65 452.17 23.37Q455.30 25.10 457.07 28.12Q458.85 31.15 458.85 35.15Q458.85 39.10 457.07 42.15Q455.30 45.20 452.17 46.95Q449.05 48.70 445.10 48.70M445.10 44.50Q447.65 44.50 449.67 43.35Q451.70 42.20 452.85 40.07Q454.00 37.95 454.00 35.15Q454.00 32.30 452.85 30.22Q451.70 28.15 449.67 27.00Q447.65 25.85 445.10 25.85Q442.55 25.85 440.55 27.00Q438.55 28.15 437.35 30.22Q436.15 32.30 436.15 35.15Q436.15 37.95 437.35 40.07Q438.55 42.20 440.55 43.35Q442.55 44.50 445.10 44.50ZM479.65 21.65Q482.90 21.65 485.37 22.90Q487.85 24.15 489.25 26.70Q490.65 29.25 490.65 33.15L490.65 48.40L485.85 48.40L485.85 33.70Q485.85 29.85 483.97 27.90Q482.10 25.95 478.70 25.95Q476.15 25.95 474.25 26.95Q472.35 27.95 471.32 29.90Q470.30 31.85 470.30 34.75L470.30 48.40L465.50 48.40L465.50 21.90L470.10 21.90L470.10 29.05L469.35 27.15Q470.65 24.55 473.35 23.10Q476.05 21.65 479.65 21.65ZM513.70 48.40L513.70 13.40L527.35 13.40Q531.95 13.40 535.20 14.85Q538.45 16.30 540.20 19.05Q541.95 21.80 541.95 25.60Q541.95 29.40 540.20 32.13Q538.45 34.85 535.20 36.30Q531.95 37.75 527.35 37.75L516.45 37.75L518.70 35.45L518.70 48.40L513.70 48.40M537.10 48.40L528.20 35.70L533.55 35.70L542.55 48.40L537.10 48.40M518.70 35.95L516.45 33.50L527.20 33.50Q532.00 33.50 534.47 31.42Q536.95 29.35 536.95 25.60Q536.95 21.85 534.47 19.80Q532.00 17.75 527.20 17.75L516.45 17.75L518.70 15.25L518.70 35.95ZM561.15 48.70Q556.90 48.70 553.67 46.95Q550.45 45.20 548.67 42.15Q546.90 39.10 546.90 35.15Q546.90 31.20 548.63 28.15Q550.35 25.10 553.38 23.37Q556.40 21.65 560.20 21.65Q564.05 21.65 567 23.35Q569.95 25.05 571.63 28.12Q573.30 31.20 573.30 35.30Q573.30 35.60 573.27 36Q573.25 36.40 573.20 36.75L550.65 36.75L550.65 33.30L570.70 33.30L568.75 34.50Q568.80 31.95 567.70 29.95Q566.60 27.95 564.67 26.82Q562.75 25.70 560.20 25.70Q557.70 25.70 555.75 26.82Q553.80 27.95 552.70 29.97Q551.60 32.00 551.60 34.60L551.60 35.40Q551.60 38.05 552.82 40.13Q554.05 42.20 556.25 43.35Q558.45 44.50 561.30 44.50Q563.65 44.50 565.57 43.70Q567.50 42.90 568.95 41.30L571.60 44.40Q569.80 46.50 567.13 47.60Q564.45 48.70 561.15 48.70ZM594 48.70Q590.70 48.70 587.98 47.17Q585.25 45.65 583.63 42.65Q582 39.65 582 35.15Q582 30.65 583.57 27.65Q585.15 24.65 587.88 23.15Q590.60 21.65 594 21.65Q597.90 21.65 600.90 23.35Q603.90 25.05 605.65 28.07Q607.40 31.10 607.40 35.15Q607.40 39.20 605.65 42.25Q603.90 45.30 600.90 47Q597.90 48.70 594 48.70M579.95 58.10L579.95 21.90L584.55 21.90L584.55 29.05L584.25 35.20L584.75 41.35L584.75 58.10L579.95 58.10M593.60 44.50Q596.15 44.50 598.17 43.35Q600.20 42.20 601.38 40.07Q602.55 37.95 602.55 35.15Q602.55 32.30 601.38 30.22Q600.20 28.15 598.17 27.00Q596.15 25.85 593.60 25.85Q591.10 25.85 589.07 27.00Q587.05 28.15 585.88 30.22Q584.70 32.30 584.70 35.15Q584.70 37.95 585.88 40.07Q587.05 42.20 589.07 43.35Q591.10 44.50 593.60 44.50ZM625.40 48.70Q621.40 48.70 618.30 46.95Q615.20 45.20 613.40 42.13Q611.60 39.05 611.60 35.15Q611.60 31.20 613.40 28.15Q615.20 25.10 618.30 23.37Q621.40 21.65 625.40 21.65Q629.35 21.65 632.48 23.37Q635.60 25.10 637.38 28.12Q639.15 31.15 639.15 35.15Q639.15 39.10 637.38 42.15Q635.60 45.20 632.48 46.95Q629.35 48.70 625.40 48.70M625.40 44.50Q627.95 44.50 629.98 43.35Q632 42.20 633.15 40.07Q634.30 37.95 634.30 35.15Q634.30 32.30 633.15 30.22Q632 28.15 629.98 27.00Q627.95 25.85 625.40 25.85Q622.85 25.85 620.85 27.00Q618.85 28.15 617.65 30.22Q616.45 32.30 616.45 35.15Q616.45 37.95 617.65 40.07Q618.85 42.20 620.85 43.35Q622.85 44.50 625.40 44.50ZM645.80 48.40L645.80 21.90L650.40 21.90L650.40 29.10L649.95 27.30Q651.05 24.55 653.65 23.10Q656.25 21.65 660.05 21.65L660.05 26.30Q659.75 26.25 659.48 26.25Q659.20 26.25 658.95 26.25Q655.10 26.25 652.85 28.55Q650.60 30.85 650.60 35.20L650.60 48.40L645.80 48.40ZM675.40 48.70Q671.40 48.70 669.20 46.55Q667 44.40 667 40.40L667 16.10L671.80 16.10L671.80 40.20Q671.80 42.35 672.88 43.50Q673.95 44.65 675.95 44.65Q678.20 44.65 679.70 43.40L681.20 46.85Q680.10 47.80 678.58 48.25Q677.05 48.70 675.40 48.70M662.50 25.85L662.50 21.90L679.40 21.90L679.40 25.85L662.50 25.85Z"/></g></g></g></svg>