<svg width="116" height="12" viewBox="0 0 116 12" fill="none" xmlns="http://www.w3.org/2000/svg">
<path d="M0.368 9V0.599999H3.512C4.224 0.599999 4.836 0.716 5.348 0.948C5.86 1.172 6.252 1.5 6.524 1.932C6.804 2.356 6.944 2.872 6.944 3.48C6.944 4.072 6.804 4.584 6.524 5.016C6.252 5.44 5.86 5.768 5.348 6C4.836 6.232 4.224 6.348 3.512 6.348H0.86L1.256 5.928V9H0.368ZM1.256 6L0.86 5.568H3.488C4.328 5.568 4.964 5.388 5.396 5.028C5.836 4.66 6.056 4.144 6.056 3.48C6.056 2.808 5.836 2.288 5.396 1.92C4.964 1.552 4.328 1.368 3.488 1.368H0.86L1.256 0.948V6ZM12.5735 9V7.608L12.5375 7.38V5.052C12.5375 4.516 12.3855 4.104 12.0815 3.816C11.7855 3.528 11.3415 3.384 10.7495 3.384C10.3415 3.384 9.9535 3.452 9.5855 3.588C9.2175 3.724 8.9055 3.904 8.6495 4.128L8.2655 3.492C8.5855 3.22 8.9695 3.012 9.4175 2.868C9.8655 2.716 10.3375 2.64 10.8335 2.64C11.6495 2.64 12.2775 2.844 12.7175 3.252C13.1655 3.652 13.3895 4.264 13.3895 5.088V9H12.5735ZM10.4015 9.06C9.9295 9.06 9.5175 8.984 9.1655 8.832C8.8215 8.672 8.5575 8.456 8.3735 8.184C8.1895 7.904 8.0975 7.584 8.0975 7.224C8.0975 6.896 8.1735 6.6 8.3255 6.336C8.4855 6.064 8.7415 5.848 9.0935 5.688C9.4535 5.52 9.9335 5.436 10.5335 5.436H12.7055V6.072H10.5575C9.9495 6.072 9.5255 6.18 9.2855 6.396C9.0535 6.612 8.9375 6.88 8.9375 7.2C8.9375 7.56 9.0775 7.848 9.3575 8.064C9.6375 8.28 10.0295 8.388 10.5335 8.388C11.0135 8.388 11.4255 8.28 11.7695 8.064C12.1215 7.84 12.3775 7.52 12.5375 7.104L12.7295 7.692C12.5695 8.108 12.2895 8.44 11.8895 8.688C11.4975 8.936 11.0015 9.06 10.4015 9.06ZM18.9196 2.64C19.4316 2.64 19.8796 2.74 20.2636 2.94C20.6556 3.132 20.9596 3.428 21.1756 3.828C21.3996 4.228 21.5116 4.732 21.5116 5.34V9H20.6596V5.424C20.6596 4.76 20.4916 4.26 20.1556 3.924C19.8276 3.58 19.3636 3.408 18.7636 3.408C18.3156 3.408 17.9236 3.5 17.5876 3.684C17.2596 3.86 17.0036 4.12 16.8196 4.464C16.6436 4.8 16.5556 5.208 16.5556 5.688V9H15.7036V2.7H16.5196V4.428L16.3876 4.104C16.5876 3.648 16.9076 3.292 17.3476 3.036C17.7876 2.772 18.3116 2.64 18.9196 2.64ZM23.993 9V0.599999H27.137C27.849 0.599999 28.461 0.716 28.973 0.948C29.485 1.172 29.877 1.5 30.149 1.932C30.429 2.356 30.569 2.872 30.569 3.48C30.569 4.072 30.429 4.584 30.149 5.016C29.877 5.44 29.485 5.768 28.973 6C28.461 6.232 27.849 6.348 27.137 6.348H24.485L24.881 5.928V9H23.993ZM24.881 6L24.485 5.568H27.113C27.953 5.568 28.589 5.388 29.021 5.028C29.461 4.66 29.681 4.144 29.681 3.48C29.681 2.808 29.461 2.288 29.021 1.92C28.589 1.552 27.953 1.368 27.113 1.368H24.485L24.881 0.948V6ZM34.9499 9.06C34.2939 9.06 33.7179 8.924 33.2219 8.652C32.7259 8.372 32.3379 7.992 32.0579 7.512C31.7779 7.024 31.6379 6.468 31.6379 5.844C31.6379 5.22 31.7699 4.668 32.0339 4.188C32.3059 3.708 32.6739 3.332 33.1379 3.06C33.6099 2.78 34.1379 2.64 34.7219 2.64C35.3139 2.64 35.8379 2.776 36.2939 3.048C36.7579 3.312 37.1219 3.688 37.3859 4.176C37.6499 4.656 37.7819 5.212 37.7819 5.844C37.7819 5.884 37.7779 5.928 37.7699 5.976C37.7699 6.016 37.7699 6.06 37.7699 6.108H32.2859V5.472H37.3139L36.9779 5.724C36.9779 5.268 36.8779 4.864 36.6779 4.512C36.4859 4.152 36.2219 3.872 35.8859 3.672C35.5499 3.472 35.1619 3.372 34.7219 3.372C34.2899 3.372 33.9019 3.472 33.5579 3.672C33.2139 3.872 32.9459 4.152 32.7539 4.512C32.5619 4.872 32.4659 5.284 32.4659 5.748V5.88C32.4659 6.36 32.5699 6.784 32.7779 7.152C32.9939 7.512 33.2899 7.796 33.6659 8.004C34.0499 8.204 34.4859 8.304 34.9739 8.304C35.3579 8.304 35.7139 8.236 36.0419 8.1C36.3779 7.964 36.6659 7.756 36.9059 7.476L37.3859 8.028C37.1059 8.364 36.7539 8.62 36.3299 8.796C35.9139 8.972 35.4539 9.06 34.9499 9.06ZM39.5161 9V2.7H40.3321V4.416L40.2481 4.116C40.4241 3.636 40.7201 3.272 41.1361 3.024C41.5521 2.768 42.0681 2.64 42.6841 2.64V3.468C42.6521 3.468 42.6201 3.468 42.5881 3.468C42.5561 3.46 42.5241 3.456 42.4921 3.456C41.8281 3.456 41.3081 3.66 40.9321 4.068C40.5561 4.468 40.3681 5.04 40.3681 5.784V9H39.5161ZM46.0011 9.06C45.4811 9.06 44.9891 8.988 44.5251 8.844C44.0611 8.692 43.6971 8.504 43.4331 8.28L43.8171 7.608C44.0731 7.8 44.4011 7.968 44.8011 8.112C45.2011 8.248 45.6211 8.316 46.0611 8.316C46.6611 8.316 47.0931 8.224 47.3571 8.04C47.6211 7.848 47.7531 7.596 47.7531 7.284C47.7531 7.052 47.6771 6.872 47.5251 6.744C47.3811 6.608 47.1891 6.508 46.9491 6.444C46.7091 6.372 46.4411 6.312 46.1451 6.264C45.8491 6.216 45.5531 6.16 45.2571 6.096C44.9691 6.032 44.7051 5.94 44.4651 5.82C44.2251 5.692 44.0291 5.52 43.8771 5.304C43.7331 5.088 43.6611 4.8 43.6611 4.44C43.6611 4.096 43.7571 3.788 43.9491 3.516C44.1411 3.244 44.4211 3.032 44.7891 2.88C45.1651 2.72 45.6211 2.64 46.1571 2.64C46.5651 2.64 46.9731 2.696 47.3811 2.808C47.7891 2.912 48.1251 3.052 48.3891 3.228L48.0171 3.912C47.7371 3.72 47.4371 3.584 47.1171 3.504C46.7971 3.416 46.4771 3.372 46.1571 3.372C45.5891 3.372 45.1691 3.472 44.8971 3.672C44.6331 3.864 44.5011 4.112 44.5011 4.416C44.5011 4.656 44.5731 4.844 44.7171 4.98C44.8691 5.116 45.0651 5.224 45.3051 5.304C45.5531 5.376 45.8211 5.436 46.1091 5.484C46.4051 5.532 46.6971 5.592 46.9851 5.664C47.2811 5.728 47.5491 5.82 47.7891 5.94C48.0371 6.052 48.2331 6.216 48.3771 6.432C48.5291 6.64 48.6051 6.916 48.6051 7.26C48.6051 7.628 48.5011 7.948 48.2931 8.22C48.0931 8.484 47.7971 8.692 47.4051 8.844C47.0211 8.988 46.5531 9.06 46.0011 9.06ZM52.7365 9.06C52.1285 9.06 51.5805 8.924 51.0925 8.652C50.6125 8.372 50.2325 7.992 49.9525 7.512C49.6725 7.024 49.5325 6.468 49.5325 5.844C49.5325 5.212 49.6725 4.656 49.9525 4.176C50.2325 3.696 50.6125 3.32 51.0925 3.048C51.5725 2.776 52.1205 2.64 52.7365 2.64C53.3605 2.64 53.9125 2.776 54.3925 3.048C54.8805 3.32 55.2605 3.696 55.5325 4.176C55.8125 4.656 55.9525 5.212 55.9525 5.844C55.9525 6.468 55.8125 7.024 55.5325 7.512C55.2605 7.992 54.8805 8.372 54.3925 8.652C53.9045 8.924 53.3525 9.06 52.7365 9.06ZM52.7365 8.304C53.1925 8.304 53.5965 8.204 53.9485 8.004C54.3005 7.796 54.5765 7.508 54.7765 7.14C54.9845 6.764 55.0885 6.332 55.0885 5.844C55.0885 5.348 54.9845 4.916 54.7765 4.548C54.5765 4.18 54.3005 3.896 53.9485 3.696C53.5965 3.488 53.1965 3.384 52.7485 3.384C52.3005 3.384 51.9005 3.488 51.5485 3.696C51.1965 3.896 50.9165 4.18 50.7085 4.548C50.5005 4.916 50.3965 5.348 50.3965 5.844C50.3965 6.332 50.5005 6.764 50.7085 7.14C50.9165 7.508 51.1965 7.796 51.5485 8.004C51.9005 8.204 52.2965 8.304 52.7365 8.304ZM60.9079 2.64C61.4199 2.64 61.8679 2.74 62.2519 2.94C62.6439 3.132 62.9479 3.428 63.1639 3.828C63.3879 4.228 63.4999 4.732 63.4999 5.34V9H62.6479V5.424C62.6479 4.76 62.4799 4.26 62.1439 3.924C61.8159 3.58 61.3519 3.408 60.7519 3.408C60.3039 3.408 59.9119 3.5 59.5759 3.684C59.2479 3.86 58.9919 4.12 58.8079 4.464C58.6319 4.8 58.5439 5.208 58.5439 5.688V9H57.6919V2.7H58.5079V4.428L58.3759 4.104C58.5759 3.648 58.8959 3.292 59.3359 3.036C59.7759 2.772 60.2999 2.64 60.9079 2.64ZM69.7493 9V7.608L69.7133 7.38V5.052C69.7133 4.516 69.5613 4.104 69.2573 3.816C68.9613 3.528 68.5173 3.384 67.9253 3.384C67.5173 3.384 67.1293 3.452 66.7613 3.588C66.3933 3.724 66.0813 3.904 65.8253 4.128L65.4413 3.492C65.7613 3.22 66.1453 3.012 66.5933 2.868C67.0413 2.716 67.5133 2.64 68.0093 2.64C68.8253 2.64 69.4533 2.844 69.8933 3.252C70.3413 3.652 70.5653 4.264 70.5653 5.088V9H69.7493ZM67.5773 9.06C67.1053 9.06 66.6933 8.984 66.3413 8.832C65.9973 8.672 65.7333 8.456 65.5493 8.184C65.3653 7.904 65.2733 7.584 65.2733 7.224C65.2733 6.896 65.3493 6.6 65.5013 6.336C65.6613 6.064 65.9173 5.848 66.2693 5.688C66.6293 5.52 67.1093 5.436 67.7093 5.436H69.8813V6.072H67.7333C67.1253 6.072 66.7013 6.18 66.4613 6.396C66.2293 6.612 66.1133 6.88 66.1133 7.2C66.1133 7.56 66.2533 7.848 66.5333 8.064C66.8133 8.28 67.2053 8.388 67.7093 8.388C68.1893 8.388 68.6013 8.28 68.9453 8.064C69.2973 7.84 69.5533 7.52 69.7133 7.104L69.9053 7.692C69.7453 8.108 69.4653 8.44 69.0653 8.688C68.6733 8.936 68.1773 9.06 67.5773 9.06ZM76.2 9V0.599999H79.344C80.056 0.599999 80.668 0.716 81.18 0.948C81.692 1.172 82.084 1.5 82.356 1.932C82.636 2.356 82.776 2.872 82.776 3.48C82.776 4.072 82.636 4.584 82.356 5.016C82.084 5.44 81.692 5.768 81.18 6C80.668 6.224 80.056 6.336 79.344 6.336H76.692L77.088 5.928V9H76.2ZM81.936 9L79.776 5.952H80.736L82.908 9H81.936ZM77.088 6L76.692 5.58H79.32C80.16 5.58 80.796 5.396 81.228 5.028C81.668 4.66 81.888 4.144 81.888 3.48C81.888 2.808 81.668 2.288 81.228 1.92C80.796 1.552 80.16 1.368 79.32 1.368H76.692L77.088 0.948V6ZM87.3679 9.06C86.7119 9.06 86.1359 8.924 85.6399 8.652C85.1439 8.372 84.7559 7.992 84.4759 7.512C84.1959 7.024 84.0559 6.468 84.0559 5.844C84.0559 5.22 84.1879 4.668 84.4519 4.188C84.7239 3.708 85.0919 3.332 85.5559 3.06C86.0279 2.78 86.5559 2.64 87.1399 2.64C87.7319 2.64 88.2559 2.776 88.7119 3.048C89.1759 3.312 89.5399 3.688 89.8039 4.176C90.0679 4.656 90.1999 5.212 90.1999 5.844C90.1999 5.884 90.1959 5.928 90.1879 5.976C90.1879 6.016 90.1879 6.06 90.1879 6.108H84.7039V5.472H89.7319L89.3959 5.724C89.3959 5.268 89.2959 4.864 89.0959 4.512C88.9039 4.152 88.6399 3.872 88.3039 3.672C87.9679 3.472 87.5799 3.372 87.1399 3.372C86.7079 3.372 86.3199 3.472 85.9759 3.672C85.6319 3.872 85.3639 4.152 85.1719 4.512C84.9799 4.872 84.8839 5.284 84.8839 5.748V5.88C84.8839 6.36 84.9879 6.784 85.1959 7.152C85.4119 7.512 85.7079 7.796 86.0839 8.004C86.4679 8.204 86.9039 8.304 87.3919 8.304C87.7759 8.304 88.1319 8.236 88.4599 8.1C88.7959 7.964 89.0839 7.756 89.3239 7.476L89.8039 8.028C89.5239 8.364 89.1719 8.62 88.7479 8.796C88.3319 8.972 87.8719 9.06 87.3679 9.06ZM95.1861 9.06C94.6421 9.06 94.1501 8.936 93.7101 8.688C93.2701 8.432 92.9181 8.068 92.6541 7.596C92.3981 7.116 92.2701 6.532 92.2701 5.844C92.2701 5.156 92.3981 4.576 92.6541 4.104C92.9101 3.624 93.2581 3.26 93.6981 3.012C94.1381 2.764 94.6341 2.64 95.1861 2.64C95.7861 2.64 96.3221 2.776 96.7941 3.048C97.2741 3.312 97.6501 3.688 97.9221 4.176C98.1941 4.656 98.3301 5.212 98.3301 5.844C98.3301 6.484 98.1941 7.044 97.9221 7.524C97.6501 8.004 97.2741 8.38 96.7941 8.652C96.3221 8.924 95.7861 9.06 95.1861 9.06ZM91.9341 11.328V2.7H92.7501V4.596L92.6661 5.856L92.7861 7.128V11.328H91.9341ZM95.1261 8.304C95.5741 8.304 95.9741 8.204 96.3261 8.004C96.6781 7.796 96.9581 7.508 97.1661 7.14C97.3741 6.764 97.4781 6.332 97.4781 5.844C97.4781 5.356 97.3741 4.928 97.1661 4.56C96.9581 4.192 96.6781 3.904 96.3261 3.696C95.9741 3.488 95.5741 3.384 95.1261 3.384C94.6781 3.384 94.2741 3.488 93.9141 3.696C93.5621 3.904 93.2821 4.192 93.0741 4.56C92.8741 4.928 92.7741 5.356 92.7741 5.844C92.7741 6.332 92.8741 6.764 93.0741 7.14C93.2821 7.508 93.5621 7.796 93.9141 8.004C94.2741 8.204 94.6781 8.304 95.1261 8.304ZM102.635 9.06C102.027 9.06 101.479 8.924 100.991 8.652C100.511 8.372 100.131 7.992 99.8509 7.512C99.5709 7.024 99.4309 6.468 99.4309 5.844C99.4309 5.212 99.5709 4.656 99.8509 4.176C100.131 3.696 100.511 3.32 100.991 3.048C101.471 2.776 102.019 2.64 102.635 2.64C103.259 2.64 103.811 2.776 104.291 3.048C104.779 3.32 105.159 3.696 105.431 4.176C105.711 4.656 105.851 5.212 105.851 5.844C105.851 6.468 105.711 7.024 105.431 7.512C105.159 7.992 104.779 8.372 104.291 8.652C103.803 8.924 103.251 9.06 102.635 9.06ZM102.635 8.304C103.091 8.304 103.495 8.204 103.847 8.004C104.199 7.796 104.475 7.508 104.675 7.14C104.883 6.764 104.987 6.332 104.987 5.844C104.987 5.348 104.883 4.916 104.675 4.548C104.475 4.18 104.199 3.896 103.847 3.696C103.495 3.488 103.095 3.384 102.647 3.384C102.199 3.384 101.799 3.488 101.447 3.696C101.095 3.896 100.815 4.18 100.607 4.548C100.399 4.916 100.295 5.348 100.295 5.844C100.295 6.332 100.399 6.764 100.607 7.14C100.815 7.508 101.095 7.796 101.447 8.004C101.799 8.204 102.195 8.304 102.635 8.304ZM107.59 9V2.7H108.406V4.416L108.322 4.116C108.498 3.636 108.794 3.272 109.21 3.024C109.626 2.768 110.142 2.64 110.758 2.64V3.468C110.726 3.468 110.694 3.468 110.662 3.468C110.63 3.46 110.598 3.456 110.566 3.456C109.902 3.456 109.382 3.66 109.006 4.068C108.63 4.468 108.442 5.04 108.442 5.784V9H107.59ZM114.575 9.06C113.983 9.06 113.527 8.9 113.207 8.58C112.887 8.26 112.727 7.808 112.727 7.224V1.308H113.579V7.176C113.579 7.544 113.671 7.828 113.855 8.028C114.047 8.228 114.319 8.328 114.671 8.328C115.047 8.328 115.359 8.22 115.607 8.004L115.907 8.616C115.739 8.768 115.535 8.88 115.295 8.952C115.063 9.024 114.823 9.06 114.575 9.06ZM111.599 3.408V2.7H115.499V3.408H111.599Z" fill="#1D3559"/>
</svg>
