<svg xmlns="http://www.w3.org/2000/svg" xmlns:xlink="http://www.w3.org/1999/xlink" width="2480" height="1675" viewBox="0 0 2480 1675">
  <defs>
    <filter id="Path_26038">
      <feOffset dy="44" input="SourceAlpha"/>
      <feGaussianBlur stdDeviation="3" result="blur"/>
      <feFlood flood-opacity="0.161" result="color"/>
      <feComposite operator="out" in="SourceGraphic" in2="blur"/>
      <feComposite operator="in" in="color"/>
      <feComposite operator="in" in2="SourceGraphic"/>
    </filter>
    <filter id="Path_26039">
      <feOffset dy="44" input="SourceAlpha"/>
      <feGaussianBlur stdDeviation="3" result="blur-2"/>
      <feFlood flood-opacity="0.161" result="color-2"/>
      <feComposite operator="out" in="SourceGraphic" in2="blur-2"/>
      <feComposite operator="in" in="color-2"/>
      <feComposite operator="in" in2="SourceGraphic"/>
    </filter>
    <filter id="Path_26040">
      <feOffset dy="44" input="SourceAlpha"/>
      <feGaussianBlur stdDeviation="3" result="blur-3"/>
      <feFlood flood-opacity="0.161" result="color-3"/>
      <feComposite operator="out" in="SourceGraphic" in2="blur-3"/>
      <feComposite operator="in" in="color-3"/>
      <feComposite operator="in" in2="SourceGraphic"/>
    </filter>
    <filter id="Path_26038-2" x="964.012" y="9.406" width="980.222" height="1401.012" filterUnits="userSpaceOnUse">
      <feOffset dy="121" input="SourceAlpha"/>
      <feGaussianBlur stdDeviation="3" result="blur-4"/>
      <feFlood flood-opacity="0.161" result="color-4"/>
      <feComposite operator="out" in="SourceGraphic" in2="blur-4"/>
      <feComposite operator="in" in="color-4"/>
      <feComposite operator="in" in2="SourceGraphic"/>
    </filter>
    <filter id="Path_26039-2" x="2108.812" y="9.434" width="980.214" height="1400.981" filterUnits="userSpaceOnUse">
      <feOffset dy="121" input="SourceAlpha"/>
      <feGaussianBlur stdDeviation="3" result="blur-5"/>
      <feFlood flood-opacity="0.161" result="color-5"/>
      <feComposite operator="out" in="SourceGraphic" in2="blur-5"/>
      <feComposite operator="in" in="color-5"/>
      <feComposite operator="in" in2="SourceGraphic"/>
    </filter>
    <filter id="Path_26040-2" x="1388.837" y="782.739" width="1275.565" height="889.25" filterUnits="userSpaceOnUse">
      <feOffset dy="121" input="SourceAlpha"/>
      <feGaussianBlur stdDeviation="3" result="blur-6"/>
      <feFlood flood-opacity="0.161" result="color-6"/>
      <feComposite operator="out" in="SourceGraphic" in2="blur-6"/>
      <feComposite operator="in" in="color-6"/>
      <feComposite operator="in" in2="SourceGraphic"/>
    </filter>
    <clipPath id="clip-Custom_Size_6">
      <rect width="2480" height="1675"/>
    </clipPath>
  </defs>
  <g id="Custom_Size_6" data-name="Custom Size – 6" clip-path="url(#clip-Custom_Size_6)">
    <g id="Layer_2" data-name="Layer 2" transform="translate(-607.025 9.406)">
      <g id="Layer_1" data-name="Layer 1" transform="translate(0 0)">
        <g data-type="innerShadowGroup">
          <path id="Path_26038-3" data-name="Path 26038" d="M273.17.338c20.413-3.787,40.056,24.906,53.087,38.194L940.377,652.589c14.186,14.251,39.414,33.7,39.8,47.373s-30.876,40.312-39.8,49.3c-206.248,205.991-404.728,406.2-612.259,613.865-8.73,8.73-33.957,38.515-49.235,37.873-20.605-.578-47.245-44.934-60.661-62.523C96.258,1179.345,1.639,971.621-.03,709.4-1.249,430.614,88.234,227.384,210.647,64.787,224.9,45.978,252.821,4.19,273.17.338" transform="translate(0.042 0.003)" fill="#67bee1"/>
          <g transform="matrix(1, 0, 0, 1, 607.03, -9.41)" filter="url(#Path_26038)">
            <path id="Path_26038-4" data-name="Path 26038" d="M273.17.338c20.413-3.787,40.056,24.906,53.087,38.194L940.377,652.589c14.186,14.251,39.414,33.7,39.8,47.373s-30.876,40.312-39.8,49.3c-206.248,205.991-404.728,406.2-612.259,613.865-8.73,8.73-33.957,38.515-49.235,37.873-20.605-.578-47.245-44.934-60.661-62.523C96.258,1179.345,1.639,971.621-.03,709.4-1.249,430.614,88.234,227.384,210.647,64.787,224.9,45.978,252.821,4.19,273.17.338" transform="translate(-606.98 9.41)" fill="#fff"/>
          </g>
        </g>
        <g data-type="innerShadowGroup">
          <path id="Path_26039-3" data-name="Path 26039" d="M876.069.315c22.4-4.237,51.353,36.461,68.235,58.8a1066.544,1066.544,0,0,1,214.208,642.494A1040.293,1040.293,0,0,1,940.26,1338.453c-15.6,20.22-41.661,62.009-60.662,62.523-17.525.514-36.718-27.217-49.3-39.8l-612.2-612.2c-8.667-8.666-39.286-32.738-39.8-47.373-.448-13.544,24.137-35.5,37.937-49.3L782.926,85.626c26.382-26.19,58.414-67.08,87.429-85.311,1.156-.706,4.364,0,5.714,0" transform="translate(966.501 0.026)" fill="#67bee1"/>
          <g transform="matrix(1, 0, 0, 1, 607.03, -9.41)" filter="url(#Path_26039)">
            <path id="Path_26039-4" data-name="Path 26039" d="M876.069.315c22.4-4.237,51.353,36.461,68.235,58.8a1066.544,1066.544,0,0,1,214.208,642.494A1040.293,1040.293,0,0,1,940.26,1338.453c-15.6,20.22-41.661,62.009-60.662,62.523-17.525.514-36.718-27.217-49.3-39.8l-612.2-612.2c-8.667-8.666-39.286-32.738-39.8-47.373-.448-13.544,24.137-35.5,37.937-49.3L782.926,85.626c26.382-26.19,58.414-67.08,87.429-85.311,1.156-.706,4.364,0,5.714,0" transform="translate(359.48 9.43)" fill="#fff"/>
          </g>
        </g>
        <g data-type="innerShadowGroup">
          <path id="Path_26040-3" data-name="Path 26040" d="M697.278,120.794c20.349-3.467,36.911,21.7,49.3,34.149l559.174,559.11c13.8,13.865,35.562,30.426,35.947,43.585.578,19.964-37.231,43.137-54.948,56.874C1143.666,925.178,946.727,1009.72,702.991,1009.72c-250.347,0-435.283-85.632-581.832-198.994-17.781-13.8-54.306-36.14-55.012-55.012-.77-22.082,59.185-70.611,73.949-85.247C312.9,497.149,480.31,331.727,651.83,158.667c14.186-14.187,27.345-34.792,45.448-37.873" transform="translate(358.686 652.864)" fill="#67bee1"/>
          <g transform="matrix(1, 0, 0, 1, 607.03, -9.41)" filter="url(#Path_26040)">
            <path id="Path_26040-4" data-name="Path 26040" d="M697.278,120.794c20.349-3.467,36.911,21.7,49.3,34.149l559.174,559.11c13.8,13.865,35.562,30.426,35.947,43.585.578,19.964-37.231,43.137-54.948,56.874C1143.666,925.178,946.727,1009.72,702.991,1009.72c-250.347,0-435.283-85.632-581.832-198.994-17.781-13.8-54.306-36.14-55.012-55.012-.77-22.082,59.185-70.611,73.949-85.247C312.9,497.149,480.31,331.727,651.83,158.667c14.186-14.187,27.345-34.792,45.448-37.873" transform="translate(-248.34 662.27)" fill="#fff"/>
          </g>
        </g>
      </g>
    </g>
    <g id="Layer_2-2" data-name="Layer 2" transform="translate(964.012 9.406)">
      <g id="Layer_1-2" data-name="Layer 1" transform="translate(0 0)">
        <g data-type="innerShadowGroup">
          <path id="Path_26038-5" data-name="Path 26038" d="M273.17.338c20.413-3.787,40.056,24.906,53.087,38.194L940.377,652.589c14.186,14.251,39.414,33.7,39.8,47.373s-30.876,40.312-39.8,49.3c-206.248,205.991-404.728,406.2-612.259,613.865-8.73,8.73-33.957,38.515-49.235,37.873-20.605-.578-47.245-44.934-60.661-62.523C96.258,1179.345,1.639,971.621-.03,709.4-1.249,430.614,88.234,227.384,210.647,64.787,224.9,45.978,252.821,4.19,273.17.338" transform="translate(0.042 0.003)" fill="#23406a"/>
          <g transform="matrix(1, 0, 0, 1, -964.01, -9.41)" filter="url(#Path_26038-2)">
            <path id="Path_26038-6" data-name="Path 26038" d="M273.17.338c20.413-3.787,40.056,24.906,53.087,38.194L940.377,652.589c14.186,14.251,39.414,33.7,39.8,47.373s-30.876,40.312-39.8,49.3c-206.248,205.991-404.728,406.2-612.259,613.865-8.73,8.73-33.957,38.515-49.235,37.873-20.605-.578-47.245-44.934-60.661-62.523C96.258,1179.345,1.639,971.621-.03,709.4-1.249,430.614,88.234,227.384,210.647,64.787,224.9,45.978,252.821,4.19,273.17.338" transform="translate(964.05 9.41)" fill="#fff"/>
          </g>
        </g>
        <g data-type="innerShadowGroup">
          <path id="Path_26039-5" data-name="Path 26039" d="M876.069.315c22.4-4.237,51.353,36.461,68.235,58.8a1066.544,1066.544,0,0,1,214.208,642.494A1040.293,1040.293,0,0,1,940.26,1338.453c-15.6,20.22-41.661,62.009-60.662,62.523-17.525.514-36.718-27.217-49.3-39.8l-612.2-612.2c-8.667-8.666-39.286-32.738-39.8-47.373-.448-13.544,24.137-35.5,37.937-49.3L782.926,85.626c26.382-26.19,58.414-67.08,87.429-85.311,1.156-.706,4.364,0,5.714,0" transform="translate(966.501 0.026)" fill="#23406a"/>
          <g transform="matrix(1, 0, 0, 1, -964.01, -9.41)" filter="url(#Path_26039-2)">
            <path id="Path_26039-6" data-name="Path 26039" d="M876.069.315c22.4-4.237,51.353,36.461,68.235,58.8a1066.544,1066.544,0,0,1,214.208,642.494A1040.293,1040.293,0,0,1,940.26,1338.453c-15.6,20.22-41.661,62.009-60.662,62.523-17.525.514-36.718-27.217-49.3-39.8l-612.2-612.2c-8.667-8.666-39.286-32.738-39.8-47.373-.448-13.544,24.137-35.5,37.937-49.3L782.926,85.626c26.382-26.19,58.414-67.08,87.429-85.311,1.156-.706,4.364,0,5.714,0" transform="translate(1930.51 9.43)" fill="#fff"/>
          </g>
        </g>
        <g data-type="innerShadowGroup">
          <path id="Path_26040-5" data-name="Path 26040" d="M697.278,120.794c20.349-3.467,36.911,21.7,49.3,34.149l559.174,559.11c13.8,13.865,35.562,30.426,35.947,43.585.578,19.964-37.231,43.137-54.948,56.874C1143.666,925.178,946.727,1009.72,702.991,1009.72c-250.347,0-435.283-85.632-581.832-198.994-17.781-13.8-54.306-36.14-55.012-55.012-.77-22.082,59.185-70.611,73.949-85.247C312.9,497.149,480.31,331.727,651.83,158.667c14.186-14.187,27.345-34.792,45.448-37.873" transform="translate(358.686 652.864)" fill="#23406a"/>
          <g transform="matrix(1, 0, 0, 1, -964.01, -9.41)" filter="url(#Path_26040-2)">
            <path id="Path_26040-6" data-name="Path 26040" d="M697.278,120.794c20.349-3.467,36.911,21.7,49.3,34.149l559.174,559.11c13.8,13.865,35.562,30.426,35.947,43.585.578,19.964-37.231,43.137-54.948,56.874C1143.666,925.178,946.727,1009.72,702.991,1009.72c-250.347,0-435.283-85.632-581.832-198.994-17.781-13.8-54.306-36.14-55.012-55.012-.77-22.082,59.185-70.611,73.949-85.247C312.9,497.149,480.31,331.727,651.83,158.667c14.186-14.187,27.345-34.792,45.448-37.873" transform="translate(1322.7 662.27)" fill="#fff"/>
          </g>
        </g>
      </g>
    </g>
  </g>
</svg>
